<?xml version="1.0" standalone="no"?><!DOCTYPE svg PUBLIC "-//W3C//DTD SVG 1.1//EN" "http://www.w3.org/Graphics/SVG/1.1/DTD/svg11.dtd"><svg t="1617268811114" class="icon" viewBox="0 0 1024 1024" version="1.1" xmlns="http://www.w3.org/2000/svg" p-id="6305" xmlns:xlink="http://www.w3.org/1999/xlink" width="200" height="200"><defs><style type="text/css"></style></defs><path d="M807.755592 765.344811a15.895012 15.895012 0 1 1-15.895012-15.895012 15.822762 15.822762 0 0 1 15.895012 15.895012zM221.374162 702.198264A15.822762 15.822762 0 1 1 205.551401 686.375503a15.895012 15.895012 0 0 1 15.822761 15.822761zM960.925704 432.994567a21.675016 21.675016 0 1 1-21.675016-21.675016 21.675016 21.675016 0 0 1 21.675016 21.675016z" fill="#5FB0E5" p-id="6306"></path><path d="M92.046567 911.289917m-21.819516 0a21.819516 21.819516 0 1 0 43.639032 0 21.819516 21.819516 0 1 0-43.639032 0Z" fill="#5FB0E5" p-id="6307"></path><path d="M969.16221 889.542652a30.272772 30.272772 0 1 1-30.200522-30.272773 30.200522 30.200522 0 0 1 30.200522 30.272773z" fill="#5FB0E5" p-id="6308"></path><path d="M92.046567 364.790517m-30.200522 0a30.200522 30.200522 0 1 0 60.401045 0 30.200522 30.200522 0 1 0-60.401045 0Z" fill="#5FB0E5" p-id="6309"></path><path d="M911.362168 648.371975H620.266704V213.498906A116.828336 116.828336 0 0 1 736.95054 96.670571a116.828336 116.828336 0 0 1 116.828335 116.828335V592.450434a54.69329 54.69329 0 0 0 57.583293 55.921541z" fill="#9ECFEF" p-id="6310"></path><path d="M911.362168 665.206237H603.504692V213.498906a133.662598 133.662598 0 0 1 267.325196 0V592.450434a40.098779 40.098779 0 0 0 11.054258 28.394271 39.665279 39.665279 0 0 0 29.550272 11.054258z m-274.550202-33.668524h210.897905a73.695054 73.695054 0 0 1-10.909758-39.665279V213.498906a99.994073 99.994073 0 0 0-199.988147 0z" fill="#0686D8" p-id="6311"></path><path d="M741.068793 402.866295V255.909687A229.104918 229.104918 0 0 0 512.975376 27.45502h-41.327031a229.104918 229.104918 0 0 0-228.454667 228.454667v146.956608z" fill="#9ECFEF" p-id="6312"></path><path d="M741.068793 402.866295V255.909687A229.104918 229.104918 0 0 0 512.975376 27.45502h-41.327031a229.104918 229.104918 0 0 0-228.454667 228.454667v146.956608z" fill="#9ECFEF" p-id="6313"></path><path d="M757.903055 419.628307H226.431666V255.909687A245.65018 245.65018 0 0 1 471.648345 10.620758H512.975376a245.65018 245.65018 0 0 1 245.65018 245.65018zM260.100191 386.032033h464.206589v-130.050096A211.837155 211.837155 0 0 0 512.975376 44.289282h-41.327031A211.837155 211.837155 0 0 0 260.100191 255.909687z" fill="#0686D8" p-id="6314"></path><path d="M776.037818 437.979821a29.622522 29.622522 0 0 1-29.622521 29.622521 29.694772 29.694772 0 0 1-29.622522-29.622521v-28.900021a29.622522 29.622522 0 0 1 29.622522-29.622522 29.550272 29.550272 0 0 1 29.622521 29.622522z" fill="#FFFFFF" p-id="6315"></path><path d="M746.415297 484.436605a46.529034 46.529034 0 0 1-46.456784-46.456784v-28.900021a46.456784 46.456784 0 1 1 92.913568 0v28.900021a46.529034 46.529034 0 0 1-46.456784 46.456784z m0-88.000565a12.788259 12.788259 0 0 0-12.78826 12.78826v28.900021a12.788259 12.788259 0 0 0 25.576519 0v-28.900021a12.788259 12.788259 0 0 0-12.788259-12.78826z" fill="#0686D8" p-id="6316"></path><path d="M264.796444 437.979821a29.694772 29.694772 0 0 1-29.622522 29.622521 29.622522 29.622522 0 0 1-29.622521-29.622521v-28.900021a29.550272 29.550272 0 0 1 29.622521-29.622522 29.622522 29.622522 0 0 1 29.622522 29.622522z" fill="#FFFFFF" p-id="6317"></path><path d="M235.173922 484.436605a46.529034 46.529034 0 0 1-46.456784-46.456784v-28.900021a46.456784 46.456784 0 0 1 92.913568 0v28.900021a46.529034 46.529034 0 0 1-46.456784 46.456784z m0-88.000565a12.788259 12.788259 0 0 0-12.788259 12.78826v28.900021a12.788259 12.788259 0 0 0 25.576519 0v-28.900021a12.788259 12.788259 0 0 0-12.78826-12.78826z" fill="#0686D8" p-id="6318"></path><path d="M768.668313 1018.075496v-44.217033a272.45495 272.45495 0 0 0-271.660199-271.660199 272.45495 272.45495 0 0 0-271.587949 271.660199v44.217033z" fill="#D2E9F7" p-id="6319"></path><path d="M785.502575 1018.075496h-33.668524v-44.217033a254.464686 254.464686 0 0 0-420.784309-192.907641l-21.675015-25.504269a288.060961 288.060961 0 0 1 476.416849 218.41191z" fill="#0686D8" p-id="6320"></path><path d="M272.238199 854.284626L242.543428 838.100614a292.901715 292.901715 0 0 1 29.839271-45.011783l26.22677 21.097015a260.100191 260.100191 0 0 0-26.37127 40.09878z" fill="#0686D8" p-id="6321"></path><path d="M242.254427 1018.075496h-33.668524v-44.217033a284.809709 284.809709 0 0 1 7.658505-65.964298l32.729274 7.730756a254.031186 254.031186 0 0 0-6.719255 58.233542z" fill="#0686D8" p-id="6322"></path><path d="M492.16736 812.018345a59.245043 59.245043 0 0 1-59.245043-59.172794V627.70846a59.245043 59.245043 0 0 1 59.245043-59.172794 59.172793 59.172793 0 0 1 59.172794 59.172794v125.137091a59.172793 59.172793 0 0 1-59.172794 59.172794z" fill="#FFFFFF" p-id="6323"></path><path d="M492.16736 828.852607a76.151556 76.151556 0 0 1-76.079305-76.007056V627.70846a76.079306 76.079306 0 0 1 151.725111 0v125.137091a76.079306 76.079306 0 0 1-75.645806 76.007056z m0-243.482678a42.410781 42.410781 0 0 0-42.410781 42.338531v125.137091a42.410781 42.410781 0 0 0 84.749312 0V627.70846A42.410781 42.410781 0 0 0 492.16736 585.225429z" fill="#0686D8" p-id="6324"></path><path d="M720.622028 310.241727v150.06336a229.104918 229.104918 0 0 1-228.454668 228.454667A229.104918 229.104918 0 0 1 263.712693 460.305087V310.241727c112.999083 0 201.649898-95.73132 226.431666-125.426092a9.031257 9.031257 0 0 1 13.87201 0c24.998518 29.622522 113.866083 125.426092 216.605659 125.426092z" fill="#FFFFFF" p-id="6325"></path><path d="M492.16736 705.594017a245.65018 245.65018 0 0 1-245.288929-245.28893V293.479715h16.834262c105.629577 0 190.089889-91.396317 213.498907-119.429338a25.648769 25.648769 0 0 1 19.796514-9.320256 25.865519 25.865519 0 0 1 19.796515 9.248006c23.698017 28.033021 108.375079 119.501588 203.745149 119.501588h16.834262v166.825372a245.65018 245.65018 0 0 1-245.21668 245.28893zM280.546955 326.425739v133.879348a211.620405 211.620405 0 1 0 423.24081 0V326.353489C608.273196 317.900233 527.425386 237.196924 497.080364 202.300148c-30.489522 35.113526-112.204332 116.033585-216.533409 124.125591z" fill="#0686D8" p-id="6326"></path><path d="M705.449517 133.807098l-63.435547-72.250053a24.854018 24.854018 0 0 1 2.312002-34.896775A24.854018 24.854018 0 0 1 679.150497 28.900021l63.435547 72.250053a24.854018 24.854018 0 0 1-2.312002 34.896776 24.854018 24.854018 0 0 1-34.824525-2.239752z" fill="#5FB0E5" p-id="6327"></path><path d="M724.16228 158.950116h-2.817752a41.25478 41.25478 0 0 1-28.900021-14.01651L629.370211 72.250053a41.61603 41.61603 0 0 1 62.568546-54.83779l63.435546 72.250053a41.54378 41.54378 0 0 1-31.212023 69.2878z m-5.996754-36.125026a7.730756 7.730756 0 0 0 5.418754 2.601002 8.092006 8.092006 0 0 0 5.707754-1.878502 8.019756 8.019756 0 0 0 2.673252-5.418753 8.236506 8.236506 0 0 0-1.878501-5.780005l-63.435547-72.250053a8.092006 8.092006 0 0 0-11.198758-0.7225 7.947506 7.947506 0 0 0-0.7225 11.198758z" fill="#0686D8" p-id="6328"></path><path d="M514.637127 489.132858h-66.470049v-137.2751h33.668525v103.606576h15.100261l7.152755-10.259508 27.67177 19.146264-17.123262 24.781768z" fill="#0686D8" p-id="6329"></path><path d="M390.945036 393.401538a57.077542 57.077542 0 0 1-40.460029-16.689762l23.770267-23.842518a24.203768 24.203768 0 0 0 33.379525 0l23.770267 23.842518a56.788542 56.788542 0 0 1-40.46003 16.689762z" fill="#0686D8" p-id="6330"></path><path d="M591.944684 393.401538a56.860792 56.860792 0 0 1-40.46003-16.762012l23.842517-23.770268a24.131518 24.131518 0 0 0 33.307275 0l23.842517 23.770268a56.860792 56.860792 0 0 1-40.532279 16.762012z" fill="#0686D8" p-id="6331"></path><path d="M497.008114 595.484936a150.35236 150.35236 0 0 1-82.870811-23.120017l18.640514-28.03302c33.885275 22.614267 94.647569 22.614267 128.460594 0l18.640514 28.03302a150.20786 150.20786 0 0 1-82.870811 23.120017z" fill="#0686D8" p-id="6332"></path></svg>